<svg style="display:none"
	xmlns="http://www.w3.org/2000/svg"
	xmlns:xlink="http://www.w3.org/1999/xlink" version="1.1">
	<symbol id="search"
		xmlns="http://www.w3.org/2000/svg" viewBox="0 -960 960 960" fill="currentColor">
		<path d="M784-120 532-372q-30 24-69 38t-83 14q-109 0-184.5-75.5T120-580q0-109 75.5-184.5T380-840q109 0 184.5 75.5T640-580q0 44-14 83t-38 69l252 252-56 56ZM380-400q75 0 127.5-52.5T560-580q0-75-52.5-127.5T380-760q-75 0-127.5 52.5T200-580q0 75 52.5 127.5T380-400Z"/>
	</symbol>

	<symbol xmlns="http://www.w3.org/2000/svg"
		xmlns:xlink="http://www.w3.org/1999/xlink" fill="currentColor" id="workflow" viewBox="0 0 496 496" style="enable-background:new 0 0 496 496;" xml:space="preserve">
		<g>
			<g>
				<path d="M480,64c8.824,0,16-7.176,16-16V15.968l-3.528-2.376C479.248,4.696,463.872,0,448,0c-28.832,0-54.912,15.2-69.208,40H368 c0-17.648-14.352-32-32-32c-9.608,0-18.128,4.336-24,11.056C306.128,12.336,297.608,8,288,8c-9.608,0-18.128,4.336-24,11.056 C258.128,12.336,249.608,8,240,8c-9.608,0-18.128,4.336-24,11.056C210.128,12.336,201.608,8,192,8c-17.648,0-32,14.352-32,32 h-42.792C102.912,15.2,76.832,0,48,0C32.128,0,16.752,4.696,3.528,13.592L0,15.968V48c0,8.824,7.176,16,16,16h40v32H16 c-8.824,0-16,7.176-16,16v32.032l3.528,2.376C16.752,155.304,32.128,160,48,160c5.616,0,11.064-0.76,16.408-1.872l-8.736,8.736 l40.776,40.784c-2.6,5.408-4.896,10.88-6.848,16.352H32v112h57.592c1.952,5.464,4.24,10.928,6.848,16.352l-40.776,40.784 l79.184,79.192l40.784-40.784c5.432,2.616,10.896,4.904,16.36,6.856V496h112v-57.592c5.464-1.952,10.928-4.24,16.36-6.856 l40.784,40.784l79.184-79.192l-40.776-40.784c2.608-5.424,4.896-10.896,6.848-16.352H464V224h-57.592 c-1.952-5.472-4.248-10.944-6.848-16.352l40.776-40.784l-8.704-8.712C436.952,159.264,442.4,160,448,160 c15.872,0,31.248-4.696,44.472-13.592l3.528-2.376V112c0-8.824-7.176-16-16-16h-40V64H480z M320,40c0-8.824,7.176-16,16-16 c8.824,0,16,7.176,16,16v8v88c0,8.824-7.176,16-16,16c-8.824,0-16-7.176-16-16V40z M272,40c0-8.824,7.176-16,16-16 c8.824,0,16,7.176,16,16v96c0,8.824-7.176,16-16,16c-8.824,0-16-7.176-16-16V40z M224,40c0-8.824,7.176-16,16-16 c8.824,0,16,7.176,16,16v96c0,8.824-7.176,16-16,16c-8.824,0-16-7.176-16-16V40z M176,100V40c0-8.824,7.176-16,16-16 c8.824,0,16,7.176,16,16v96c0,6.976-4.52,13.016-10.904,15.16L176,132.408V100z M234.688,205.976l10.624-11.96l-35.52-31.576 c2.312-1.56,4.464-3.32,6.288-5.408C221.952,163.704,230.44,168,240,168c9.608,0,18.128-4.336,24-11.056 c5.872,6.72,14.392,11.056,24,11.056c9.608,0,18.128-4.336,24-11.056c5.872,6.72,14.392,11.056,24,11.056 c5.856,0,11.272-1.696,16-4.448v33.136l-40,40V312h-16v16h16v33.808C294.328,375.656,272.144,384,248,384 c-24.144,0-46.328-8.344-64-22.192V328h96v-16h-96v-75.632l-55.808-48.832C122.984,182.984,120,176.4,120,169.48V100 c0-11.024,8.968-20,20-20s20,8.976,20,20v36v3.592L234.688,205.976z M339.904,231.408C347.8,246.312,352,262.872,352,280 c0,25.208-9.024,48.336-24,66.36V243.312L339.904,231.408z M168,243.632V346.36c-14.976-18.024-24-41.152-24-66.36 c0-16.544,3.928-32.792,11.4-47.392L168,243.632z M48,144c-11.288,0-22.272-2.976-32-8.648V112h56V48H16V24.648 C25.728,18.976,36.712,16,48,16c24.408,0,46.352,13.632,57.264,35.568L107.48,56H160v14.096C154.272,66.256,147.4,64,140,64 c-19.848,0-36,16.152-36,36v10.592C92.736,131.216,71.568,144,48,144z M380,204.568l2.728,5.208 c4.24,8.12,7.712,16.4,10.296,24.624l1.768,5.6H448v80h-53.208l-1.768,5.6c-2.576,8.184-6.04,16.472-10.304,24.632L380,355.44 l37.704,37.704l-56.56,56.568L323.432,412l-5.2,2.72c-8.168,4.264-16.448,7.728-24.624,10.296l-5.6,1.76V480H208v-53.216 l-5.6-1.76c-8.176-2.568-16.464-6.032-24.624-10.296l-5.2-2.72l-37.712,37.704l-56.56-56.568l37.704-37.704l-2.72-5.208 c-4.264-8.16-7.728-16.448-10.304-24.632l-1.776-5.6H48v-80h53.208l1.768-5.6c2.584-8.224,6.056-16.504,10.296-24.624l2.728-5.208 l-37.704-37.704L104,141.16v28.32c0,11.528,4.976,22.504,13.664,30.104l25.432,22.256C133.248,239.576,128,259.576,128,280 c0,66.168,53.832,120,120,120s120-53.832,120-120c0-21.424-5.616-42.112-16.296-60.392L368,203.312V136v-16h2.848l46.856,46.864 L380,204.568z M480,112v23.352c-9.728,5.672-20.712,8.648-32,8.648c-24.408,0-46.352-13.632-57.264-35.568L388.52,104H368V56 h20.52l2.208-4.432C401.648,29.632,423.592,16,448,16c11.288,0,22.272,2.976,32,8.648V48h-56v64H480z"></path>
			</g>
		</g>
	</symbol>

	<symbol xmlns="http://www.w3.org/2000/svg"
		xmlns:xlink="http://www.w3.org/1999/xlink" id="lessWaste" fill="currentColor" viewBox="0 0 512 512" style="enable-background:new 0 0 512 512;" xml:space="preserve">
		<g>
			<g>
				<path d="M463.5,467H441v-39.461c9.247-2.796,16-11.392,16-21.539c0-5.758-2.177-11.016-5.747-15c3.571-3.984,5.747-9.242,5.747-15 s-2.177-11.016-5.747-15c3.571-3.984,5.747-9.242,5.747-15s-2.177-11.016-5.747-15c3.571-3.984,5.747-9.242,5.747-15 s-2.177-11.016-5.747-15c3.571-3.984,5.747-9.242,5.747-15s-2.177-11.016-5.747-15c3.571-3.984,5.747-9.242,5.747-15 s-2.177-11.016-5.747-15c3.571-3.984,5.747-9.242,5.747-15s-2.177-11.016-5.747-15c3.571-3.984,5.747-9.242,5.747-15 s-2.177-11.016-5.747-15c3.571-3.984,5.747-9.242,5.747-15s-2.177-11.016-5.747-15c3.571-3.984,5.747-9.242,5.747-15 s-2.177-11.016-5.747-15c3.571-3.984,5.747-9.242,5.747-15c0-10.147-6.753-18.743-16-21.539v-4.294c0-4.142-3.358-7.5-7.5-7.5 c-4.142,0-7.5,3.358-7.5,7.5V83.5H198c-4.142,0-7.5,3.358-7.5,7.5c0,4.142,3.358,7.5,7.5,7.5h236.5c4.136,0,7.5,3.364,7.5,7.5 s-3.364,7.5-7.5,7.5h-302c-4.136,0-7.5-3.364-7.5-7.5s3.364-7.5,7.5-7.5H166c4.142,0,7.5-3.358,7.5-7.5c0-4.142-3.358-7.5-7.5-7.5 h-25V45h285v2.833c0,4.142,3.358,7.5,7.5,7.5c4.142,0,7.5-3.358,7.5-7.5V45h22.5c12.407,0,22.5-10.093,22.5-22.5 S475.907,0,463.5,0h-360C91.093,0,81,10.093,81,22.5S91.093,45,103.5,45H126v39.461c-9.247,2.796-16,11.392-16,21.539 c0,5.758,2.177,11.016,5.747,15c-3.571,3.984-5.747,9.242-5.747,15s2.177,11.016,5.747,15c-3.571,3.984-5.747,9.242-5.747,15 s2.177,11.016,5.747,15c-3.571,3.984-5.747,9.242-5.747,15s2.177,11.016,5.747,15c-3.571,3.984-5.747,9.242-5.747,15 s2.177,11.016,5.747,15c-3.571,3.984-5.747,9.242-5.747,15s2.177,11.016,5.747,15c-3.571,3.984-5.747,9.242-5.747,15 c0,2.629,0.458,5.153,1.29,7.5H48.5C36.093,293.5,26,303.593,26,316c0,12.407,10.093,22.5,22.5,22.5h62.79 c-0.833,2.347-1.29,4.871-1.29,7.5c0,5.758,2.177,11.016,5.747,15c-3.571,3.984-5.747,9.242-5.747,15s2.177,11.016,5.747,15 c-3.571,3.984-5.747,9.242-5.747,15c0,10.147,6.753,18.743,16,21.539V467h-22.5C91.093,467,81,477.093,81,489.5 c0,12.407,10.093,22.5,22.5,22.5h360c12.407,0,22.5-10.093,22.5-22.5C486,477.093,475.907,467,463.5,467z M103.5,30 c-4.136,0-7.5-3.364-7.5-7.5s3.364-7.5,7.5-7.5h360c4.136,0,7.5,3.364,7.5,7.5s-3.364,7.5-7.5,7.5H103.5z M434.5,353.5h-302 c-4.136,0-7.5-3.364-7.5-7.5s3.364-7.5,7.5-7.5h302c4.136,0,7.5,3.364,7.5,7.5S438.636,353.5,434.5,353.5z M442,376 c0,4.136-3.364,7.5-7.5,7.5h-302c-4.136,0-7.5-3.364-7.5-7.5s3.364-7.5,7.5-7.5h302C438.636,368.5,442,371.864,442,376z M132.5,128.5h302c4.136,0,7.5,3.364,7.5,7.5s-3.364,7.5-7.5,7.5h-302c-4.136,0-7.5-3.364-7.5-7.5S128.364,128.5,132.5,128.5z M132.5,158.5h302c4.136,0,7.5,3.364,7.5,7.5s-3.364,7.5-7.5,7.5h-302c-4.136,0-7.5-3.364-7.5-7.5S128.364,158.5,132.5,158.5z M132.5,188.5h302c4.136,0,7.5,3.364,7.5,7.5s-3.364,7.5-7.5,7.5h-302c-4.136,0-7.5-3.364-7.5-7.5S128.364,188.5,132.5,188.5z M132.5,218.5h302c4.136,0,7.5,3.364,7.5,7.5s-3.364,7.5-7.5,7.5h-302c-4.136,0-7.5-3.364-7.5-7.5S128.364,218.5,132.5,218.5z M132.5,248.5h302c4.136,0,7.5,3.364,7.5,7.5s-3.364,7.5-7.5,7.5h-302c-4.136,0-7.5-3.364-7.5-7.5S128.364,248.5,132.5,248.5z M132.5,278.5h302c4.136,0,7.5,3.364,7.5,7.5s-3.364,7.5-7.5,7.5h-302c-4.136,0-7.5-3.364-7.5-7.5S128.364,278.5,132.5,278.5z M48.5,323.5c-4.136,0-7.5-3.364-7.5-7.5s3.364-7.5,7.5-7.5h386c4.136,0,7.5,3.364,7.5,7.5s-3.364,7.5-7.5,7.5H48.5z M125,406 c0-4.136,3.364-7.5,7.5-7.5h302c4.136,0,7.5,3.364,7.5,7.5s-3.364,7.5-7.5,7.5h-44.167c-4.142,0-7.5,3.358-7.5,7.5 c0,4.142,3.358,7.5,7.5,7.5H426V467H141v-38.5h217c4.142,0,7.5-3.358,7.5-7.5c0-4.142-3.358-7.5-7.5-7.5H132.5 C128.364,413.5,125,410.136,125,406z M463.5,497h-360c-4.136,0-7.5-3.364-7.5-7.5s3.364-7.5,7.5-7.5h360 c4.136,0,7.5,3.364,7.5,7.5S467.636,497,463.5,497z"></path>
			</g>
		</g>
	</symbol>

	<symbol xmlns="http://www.w3.org/2000/svg" id="laborCost" fill="currentColor" viewBox="0 0 64 64">
		<g>
			<path d="m11 16.855v2.145h2v-2.145c1.155-.366 2-1.435 2-2.709 0-1.088-.604-2.066-1.578-2.553l-1.949-.975c-.292-.145-.473-.438-.473-.764 0-.471.384-.854.854-.854h.291c.471 0 .855.383.855.854v.146h2v-.146c0-1.274-.845-2.343-2-2.709v-2.145h-2v2.145c-1.155.366-2 1.435-2 2.709 0 1.088.604 2.066 1.578 2.553l1.949.975c.292.145.473.438.473.764 0 .471-.384.854-.854.854h-.291c-.471 0-.855-.383-.855-.854v-1.146h-2v1.146c0 1.274.845 2.343 2 2.709z"></path>
			<path d="m13 47.145v-2.145h-2v2.145c-1.155.366-2 1.435-2 2.709 0 1.088.604 2.065 1.578 2.553l1.949.975c.292.145.473.438.473.764 0 .47-.384.854-.854.854h-.291c-.471 0-.855-.384-.855-.854v-1.146h-2v1.146c0 1.275.845 2.344 2 2.709v2.145h2v-2.145c1.155-.366 2-1.435 2-2.709 0-1.088-.604-2.065-1.578-2.553l-1.949-.975c-.292-.145-.473-.438-.473-.764 0-.47.384-.854.854-.854h.291c.471 0 .855.384.855.854v.146h2v-.146c0-1.274-.845-2.343-2-2.709z"></path>
			<path d="m12 23c4.712 0 8.729-2.984 10.293-7.156l7.712 2.103c0 .018-.005.035-.005.053 0 2.206 1.794 4 4 4 2.085 0 3.782-1.609 3.964-3.647l4.387-.731c.624 1.398 2.021 2.378 3.649 2.378.943 0 1.798-.341 2.483-.889l11.048 8.286-3.695.616.328 1.973 6.986-1.165-1.164-6.986-1.973.329.59 3.539-10.908-8.181c.195-.47.305-.983.305-1.522 0-2.206-1.794-4-4-4-2.085 0-3.782 1.609-3.964 3.647l-4.387.731c-.624-1.398-2.021-2.378-3.649-2.378-1.483 0-2.764.82-3.455 2.021l-7.723-2.106c.11-.623.178-1.261.178-1.915 0-6.065-4.935-11-11-11s-11 4.935-11 11 4.935 11 11 11zm34-9c1.103 0 2 .897 2 2s-.897 2-2 2-2-.897-2-2 .897-2 2-2zm-12 2c1.103 0 2 .897 2 2s-.897 2-2 2-2-.897-2-2 .897-2 2-2zm-22-13c4.963 0 9 4.038 9 9s-4.037 9-9 9-9-4.038-9-9 4.037-9 9-9z"></path>
			<path d="m17 33h-2.405c-.6-1.181-1.814-2-3.227-2h-2.736c-2.003 0-3.632 1.629-3.632 3.632 0 .337.047.673.14.997l1.762 6.169-3.902 5.202c-1.29 1.721-2 3.852-2 6 0 5.514 4.486 10 10 10h2c1.422 0 2.774-.303 4-.841v.841h10v-38h-10zm-8.368 0h2.736c.9 0 1.632.732 1.632 1.632v2.368h2v-2h2.172c1.008 0 1.828.82 1.828 1.828 0 .481-.195.953-.535 1.293l-2.879 2.879h-6.831l-1.692-5.921c-.042-.145-.063-.296-.063-.447 0-.9.732-1.632 1.632-1.632zm2.368 28c-4.411 0-8-3.589-8-8 0-1.719.568-3.424 1.6-4.801l3.9-5.199h7l3.9 5.199c1.032 1.377 1.6 3.082 1.6 4.801 0 4.411-3.589 8-8 8zm14-34v34h-6v-.019c2.423-1.827 4-4.719 4-7.981 0-2.148-.71-4.279-2-6l-3.68-4.906 2.559-2.559c.723-.722 1.121-1.684 1.121-2.707 0-1.445-.815-2.691-2-3.342v-6.486z"></path>
			<path d="m29 63h10v-32h-10zm2-30h6v28h-6z"></path>
			<path d="m41 63h10v-37h-10zm2-35h6v33h-6z"></path>
			<path d="m53 63h10v-28h-10zm2-26h6v24h-6z"></path>
		</g>
	</symbol>

	<symbol id="shopping_bag"
		xmlns="http://www.w3.org/2000/svg" viewBox="0 0 23 20" fill="none">
		<rect width="23" height="20" fill="#F5F5F5"/>
		<g clip-path="url(#clip0_0_1)">
			<rect width="1440" height="3303" transform="translate(-1336 -20)" fill="white"/>
			<rect x="-1336" y="-20" width="1440" height="57" fill="white"/>
			<path d="M5.62499 17.25C6.39499 17.25 6.99999 17.855 6.99999 18.625C6.99999 19.395 6.39499 20 5.62499 20C4.85499 20 4.24999 19.395 4.24999 18.625C4.24999 17.855 4.85499 17.25 5.62499 17.25ZM18.625 17.25C19.395 17.25 20 17.855 20 18.625C20 19.395 19.395 20 18.625 20C17.855 20 17.25 19.395 17.25 18.625C17.25 17.855 17.854 17.25 18.625 17.25ZM1.13499 0.212006L4.09699 0.755006L22.859 3.37701L20.569 11.23L6.71399 11.722L7.08199 13.889C7.17599 14.447 7.63199 14.866 8.18499 14.923L8.31499 14.93H20.25V16.43H8.31399C7.69416 16.43 7.09249 16.2207 6.60657 15.8359C6.12065 15.451 5.77899 14.9134 5.63699 14.31L5.60299 14.14L5.17599 11.626L3.35999 2.14401L0.86499 1.68801L1.13499 0.212006ZM4.93299 2.38701L6.43599 10.231L19.432 9.76901L20.932 4.62201L4.93199 2.38701H4.93299Z" fill="black"/>
			<mask id="mask0_0_1" style="mask-type:luminance" maskUnits="userSpaceOnUse" x="0" y="0" width="23" height="20">
				<path d="M5.62499 17.25C6.39499 17.25 6.99999 17.855 6.99999 18.625C6.99999 19.395 6.39499 20 5.62499 20C4.85499 20 4.24999 19.395 4.24999 18.625C4.24999 17.855 4.85499 17.25 5.62499 17.25ZM18.625 17.25C19.395 17.25 20 17.855 20 18.625C20 19.395 19.395 20 18.625 20C17.855 20 17.25 19.395 17.25 18.625C17.25 17.855 17.854 17.25 18.625 17.25ZM1.13499 0.212006L4.09699 0.755006L22.859 3.37701L20.569 11.23L6.71399 11.722L7.08199 13.889C7.17599 14.447 7.63199 14.866 8.18499 14.923L8.31499 14.93H20.25V16.43H8.31399C7.69416 16.43 7.09249 16.2207 6.60657 15.8359C6.12065 15.451 5.77899 14.9134 5.63699 14.31L5.60299 14.14L5.17599 11.626L3.35999 2.14401L0.86499 1.68801L1.13499 0.212006ZM4.93299 2.38701L6.43599 10.231L19.432 9.76901L20.932 4.62201L4.93199 2.38701H4.93299Z" fill="currentColor"/>
			</mask>
		</g>
		<defs>
			<clipPath id="clip0_0_1">
				<rect width="1440" height="3303" fill="white" transform="translate(-1336 -20)"/>
			</clipPath>
		</defs>
	</symbol>

	<symbol xmlns="http://www.w3.org/2000/svg"
		xmlns:xlink="http://www.w3.org/1999/xlink" fill="currentColor" id="jobWatch" viewBox="0 0 511.992 511.992" style="enable-background:new 0 0 511.992 511.992;">
		<g id="XMLID_806_">
			<g id="XMLID_386_">
				<path id="XMLID_389_" d="M511.005,279.646c-4.597-46.238-25.254-89.829-58.168-122.744 c-28.128-28.127-62.556-46.202-98.782-54.239V77.255c14.796-3.681,25.794-17.074,25.794-32.993c0-18.748-15.252-34-34-34h-72 c-18.748,0-34,15.252-34,34c0,15.918,10.998,29.311,25.793,32.993v25.479c-36.115,8.071-70.429,26.121-98.477,54.169 c-6.138,6.138-11.798,12.577-16.979,19.269c-0.251-0.019-0.502-0.038-0.758-0.038H78.167c-5.522,0-10,4.477-10,10s4.478,10,10,10 h58.412c-7.332,12.275-13.244,25.166-17.744,38.436H10c-5.522,0-10,4.477-10,10s4.478,10,10,10h103.184 c-2.882,12.651-4.536,25.526-4.963,38.437H64c-5.522,0-10,4.477-10,10s4.478,10,10,10h44.54 c0.844,12.944,2.925,25.82,6.244,38.437H50c-5.522,0-10,4.477-10,10s4.478,10,10,10h71.166 c9.81,25.951,25.141,50.274,45.999,71.132c32.946,32.946,76.582,53.608,122.868,58.181c6.606,0.652,13.217,0.975,19.819,0.975 c39.022,0,77.548-11.293,110.238-32.581c4.628-3.014,5.937-9.209,2.923-13.837s-9.209-5.937-13.837-2.923 c-71.557,46.597-167.39,36.522-227.869-23.957c-70.962-70.962-70.962-186.425,0-257.388c70.961-70.961,186.424-70.961,257.387,0 c60.399,60.4,70.529,156.151,24.086,227.673c-3.008,4.632-1.691,10.826,2.94,13.833c4.634,3.008,10.826,1.691,13.833-2.941 C504.367,371.396,515.537,325.241,511.005,279.646z M259.849,44.263c0-7.72,6.28-14,14-14h72c7.72,0,14,6.28,14,14s-6.28,14-14,14 h-1.794h-68.413h-1.793C266.129,58.263,259.849,51.982,259.849,44.263z M285.642,99.296V78.263h48.413v20.997 C317.979,97.348,301.715,97.36,285.642,99.296z"></path>
				<path id="XMLID_391_" d="M445.77,425.5c-2.64,0-5.21,1.07-7.069,2.93c-1.87,1.86-2.931,4.44-2.931,7.07 c0,2.63,1.061,5.21,2.931,7.07c1.859,1.87,4.43,2.93,7.069,2.93c2.63,0,5.2-1.06,7.07-2.93c1.86-1.86,2.93-4.44,2.93-7.07 c0-2.63-1.069-5.21-2.93-7.07C450.97,426.57,448.399,425.5,445.77,425.5z"></path>
				<path id="XMLID_394_" d="M310.001,144.609c-85.538,0-155.129,69.59-155.129,155.129s69.591,155.129,155.129,155.129 s155.129-69.59,155.129-155.129S395.539,144.609,310.001,144.609z M310.001,434.867c-74.511,0-135.129-60.619-135.129-135.129 s60.618-135.129,135.129-135.129S445.13,225.228,445.13,299.738S384.512,434.867,310.001,434.867z"></path>
				<path id="XMLID_397_" d="M373.257,222.34l-49.53,49.529c-4.142-2.048-8.801-3.205-13.726-3.205c-4.926,0-9.584,1.157-13.726,3.205 l-22.167-22.167c-3.906-3.905-10.236-3.905-14.143,0c-3.905,3.905-3.905,10.237,0,14.142l22.167,22.167 c-2.049,4.142-3.205,8.801-3.205,13.726c0,17.134,13.939,31.074,31.074,31.074s31.074-13.94,31.074-31.074 c0-4.925-1.157-9.584-3.205-13.726l48.076-48.076v0l1.453-1.453c3.905-3.905,3.905-10.237,0-14.142 S377.164,218.435,373.257,222.34z M310.001,310.812c-6.106,0-11.074-4.968-11.074-11.074s4.968-11.074,11.074-11.074 s11.074,4.968,11.074,11.074S316.107,310.812,310.001,310.812z"></path>
				<path id="XMLID_398_" d="M416.92,289.86h-9.265c-5.522,0-10,4.477-10,10s4.478,10,10,10h9.265c5.522,0,10-4.477,10-10 S422.442,289.86,416.92,289.86z"></path>
				<path id="XMLID_399_" d="M212.346,289.616h-9.264c-5.522,0-10,4.477-10,10s4.478,10,10,10h9.264c5.522,0,10-4.477,10-10 S217.868,289.616,212.346,289.616z"></path>
				<path id="XMLID_400_" d="M310.123,212.083c5.522,0,10-4.477,10-10v-9.264c0-5.523-4.478-10-10-10s-10,4.477-10,10v9.264 C300.123,207.606,304.601,212.083,310.123,212.083z"></path>
				<path id="XMLID_424_" d="M309.879,387.393c-5.522,0-10,4.477-10,10v9.264c0,5.523,4.478,10,10,10s10-4.477,10-10v-9.264 C319.879,391.87,315.401,387.393,309.879,387.393z"></path>
				<path id="XMLID_425_" d="M10,351.44c-2.63,0-5.21,1.07-7.07,2.93c-1.86,1.86-2.93,4.44-2.93,7.07c0,2.64,1.069,5.21,2.93,7.07 s4.44,2.93,7.07,2.93s5.21-1.07,7.069-2.93c1.86-1.86,2.931-4.44,2.931-7.07s-1.07-5.21-2.931-7.07 C15.21,352.51,12.63,351.44,10,351.44z"></path>
			</g>
		</g>
	</symbol>
	<!-- <symbol id="shopping_bag" xmlns="http://www.w3.org/2000/svg" viewBox="0 -960 960 960" fill="currentColor">
		<path d="M240-80q-33 0-56.5-23.5T160-160v-480q0-33 23.5-56.5T240-720h80q0-66 47-113t113-47q66 0 113 47t47 113h80q33 0 56.5 23.5T800-640v480q0 33-23.5 56.5T720-80H240Zm0-80h480v-480h-80v80q0 17-11.5 28.5T600-520q-17 0-28.5-11.5T560-560v-80H400v80q0 17-11.5 28.5T360-520q-17 0-28.5-11.5T320-560v-80h-80v480Zm160-560h160q0-33-23.5-56.5T480-800q-33 0-56.5 23.5T400-720ZM240-160v-480 480Z"/>
	</symbol> -->
	<symbol id="menu"
		xmlns="http://www.w3.org/2000/svg" viewBox="0 -960 960 960" fill="currentColor">
		<path d="M120-240v-80h720v80H120Zm0-200v-80h720v80H120Zm0-200v-80h720v80H120Z"/>
	</symbol>
	<symbol id="account_circle"
		xmlns="http://www.w3.org/2000/svg" viewBox="0 -960 960 960" fill="currentColor">
		<path d="M234-276q51-39 114-61.5T480-360q69 0 132 22.5T726-276q35-41 54.5-93T800-480q0-133-93.5-226.5T480-800q-133 0-226.5 93.5T160-480q0 59 19.5 111t54.5 93Zm246-164q-59 0-99.5-40.5T340-580q0-59 40.5-99.5T480-720q59 0 99.5 40.5T620-580q0 59-40.5 99.5T480-440Zm0 360q-83 0-156-31.5T197-197q-54-54-85.5-127T80-480q0-83 31.5-156T197-763q54-54 127-85.5T480-880q83 0 156 31.5T763-763q54 54 85.5 127T880-480q0 83-31.5 156T763-197q-54 54-127 85.5T480-80Zm0-80q53 0 100-15.5t86-44.5q-39-29-86-44.5T480-280q-53 0-100 15.5T294-220q39 29 86 44.5T480-160Zm0-360q26 0 43-17t17-43q0-26-17-43t-43-17q-26 0-43 17t-17 43q0 26 17 43t43 17Zm0-60Zm0 360Z"/>
	</symbol>
	<symbol id="close"
		xmlns="http://www.w3.org/2000/svg" viewBox="0 -960 960 960" fill="currentColor">
		<path d="m256-200-56-56 224-224-224-224 56-56 224 224 224-224 56 56-224 224 224 224-56 56-224-224-224 224Z"/>
	</symbol>
	<symbol id="chevron-right"
		xmlns="http://www.w3.org/2000/svg" viewBox="0 -960 960 960" fill="currentColor">
		<path d="M504-480 320-664l56-56 240 240-240 240-56-56 184-184Z"/>
	</symbol>
	<symbol id="favorite"
		xmlns="http://www.w3.org/2000/svg" viewBox="0 -960 960 960" fill="currentColor">
		<path d="m480-120-58-52q-101-91-167-157T150-447.5Q111-500 95.5-544T80-634q0-94 63-157t157-63q52 0 99 22t81 62q34-40 81-62t99-22q94 0 157 63t63 157q0 46-15.5 90T810-447.5Q771-395 705-329T538-172l-58 52Zm0-108q96-86 158-147.5t98-107q36-45.5 50-81t14-70.5q0-60-40-100t-100-40q-47 0-87 26.5T518-680h-76q-15-41-55-67.5T300-774q-60 0-100 40t-40 100q0 35 14 70.5t50 81q36 45.5 98 107T480-228Zm0-273Z"/>
	</symbol>
	<symbol id="home_pin"
		xmlns="http://www.w3.org/2000/svg" viewBox="0 -960 960 960" fill="currentColor">
		<path d="M360-440h80v-110h80v110h80v-190l-120-80-120 80v190Zm120 254q122-112 181-203.5T720-552q0-109-69.5-178.5T480-800q-101 0-170.5 69.5T240-552q0 71 59 162.5T480-186Zm0 106Q319-217 239.5-334.5T160-552q0-150 96.5-239T480-880q127 0 223.5 89T800-552q0 100-79.5 217.5T480-80Zm0-480Z"/>
	</symbol>
	<symbol id="call"
		xmlns="http://www.w3.org/2000/svg" viewBox="0 -960 960 960" fill="currentColor">
		<path d="M798-120q-125 0-247-54.5T329-329Q229-429 174.5-551T120-798q0-18 12-30t30-12h162q14 0 25 9.5t13 22.5l26 140q2 16-1 27t-11 19l-97 98q20 37 47.5 71.5T387-386q31 31 65 57.5t72 48.5l94-94q9-9 23.5-13.5T670-390l138 28q14 4 23 14.5t9 23.5v162q0 18-12 30t-30 12ZM241-600l66-66-17-94h-89q5 41 14 81t26 79Zm358 358q39 17 79.5 27t81.5 13v-88l-94-19-67 67ZM241-600Zm358 358Z"/>
	</symbol>
	<symbol id="local_shipping"
		xmlns="http://www.w3.org/2000/svg" viewBox="0 -960 960 960" fill="currentColor">
		<path d="M240-160q-50 0-85-35t-35-85H40v-440q0-33 23.5-56.5T120-800h560v160h120l120 160v200h-80q0 50-35 85t-85 35q-50 0-85-35t-35-85H360q0 50-35 85t-85 35Zm0-80q17 0 28.5-11.5T280-280q0-17-11.5-28.5T240-320q-17 0-28.5 11.5T200-280q0 17 11.5 28.5T240-240ZM120-360h32q17-18 39-29t49-11q27 0 49 11t39 29h272v-360H120v360Zm600 120q17 0 28.5-11.5T760-280q0-17-11.5-28.5T720-320q-17 0-28.5 11.5T680-280q0 17 11.5 28.5T720-240Zm-40-200h170l-90-120h-80v120ZM360-540Z"/>
	</symbol>
	<symbol id="pan_zoom"
		xmlns="http://www.w3.org/2000/svg" viewBox="0 -960 960 960" fill="currentColor">
		<path d="M120-120v-240h80v104l124-124 56 56-124 124h104v80H120Zm516-460-56-56 124-124H600v-80h240v240h-80v-104L636-580Z"/>
	</symbol>
	<symbol id="share"
		xmlns="http://www.w3.org/2000/svg" viewBox="0 -960 960 960" fill="currentColor">
		<path d="M720-80q-50 0-85-35t-35-85q0-7 1-14.5t3-13.5L322-392q-17 15-38 23.5t-44 8.5q-50 0-85-35t-35-85q0-50 35-85t85-35q23 0 44 8.5t38 23.5l282-164q-2-6-3-13.5t-1-14.5q0-50 35-85t85-35q50 0 85 35t35 85q0 50-35 85t-85 35q-23 0-44-8.5T638-672L356-508q2 6 3 13.5t1 14.5q0 7-1 14.5t-3 13.5l282 164q17-15 38-23.5t44-8.5q50 0 85 35t35 85q0 50-35 85t-85 35Zm0-640q17 0 28.5-11.5T760-760q0-17-11.5-28.5T720-800q-17 0-28.5 11.5T680-760q0 17 11.5 28.5T720-720ZM240-440q17 0 28.5-11.5T280-480q0-17-11.5-28.5T240-520q-17 0-28.5 11.5T200-480q0 17 11.5 28.5T240-440Zm480 280q17 0 28.5-11.5T760-200q0-17-11.5-28.5T720-240q-17 0-28.5 11.5T680-200q0 17 11.5 28.5T720-160Zm0-600ZM240-480Zm480 280Z"/>
	</symbol>
	<symbol id="sell"
		xmlns="http://www.w3.org/2000/svg" viewBox="0 -960 960 960" fill="currentColor">
		<path d="M856-390 570-104q-12 12-27 18t-30 6q-15 0-30-6t-27-18L103-457q-11-11-17-25.5T80-513v-287q0-33 23.5-56.5T160-880h287q16 0 31 6.5t26 17.5l352 353q12 12 17.5 27t5.5 30q0 15-5.5 29.5T856-390ZM513-160l286-286-353-354H160v286l353 354ZM260-640q25 0 42.5-17.5T320-700q0-25-17.5-42.5T260-760q-25 0-42.5 17.5T200-700q0 25 17.5 42.5T260-640Zm220 160Z"/>
	</symbol>
	<symbol id="check-circle"
		xmlns="http://www.w3.org/2000/svg" viewBox="0 -960 960 960" fill="currentColor">
		<path d="m424-296 282-282-56-56-226 226-114-114-56 56 170 170Zm56 216q-83 0-156-31.5T197-197q-54-54-85.5-127T80-480q0-83 31.5-156T197-763q54-54 127-85.5T480-880q83 0 156 31.5T763-763q54 54 85.5 127T880-480q0 83-31.5 156T763-197q-54 54-127 85.5T480-80Zm0-80q134 0 227-93t93-227q0-134-93-227t-227-93q-134 0-227 93t-93 227q0 134 93 227t227 93Zm0-320Z"/>
	</symbol>
	<symbol id="error"
		xmlns="http://www.w3.org/2000/svg" viewBox="0 -960 960 960" fill="currentColor">
		<path d="M480-280q17 0 28.5-11.5T520-320q0-17-11.5-28.5T480-360q-17 0-28.5 11.5T440-320q0 17 11.5 28.5T480-280Zm-40-160h80v-240h-80v240Zm40 360q-83 0-156-31.5T197-197q-54-54-85.5-127T80-480q0-83 31.5-156T197-763q54-54 127-85.5T480-880q83 0 156 31.5T763-763q54 54 85.5 127T880-480q0 83-31.5 156T763-197q-54 54-127 85.5T480-80Zm0-80q134 0 227-93t93-227q0-134-93-227t-227-93q-134 0-227 93t-93 227q0 134 93 227t227 93Zm0-320Z"/>
	</symbol>
	<symbol id="trash"
		xmlns="http://www.w3.org/2000/svg" viewBox="0 -960 960 960" fill="currentColor">
		<path d="M280-120q-33 0-56.5-23.5T200-200v-520h-40v-80h200v-40h240v40h200v80h-40v520q0 33-23.5 56.5T680-120H280Zm400-600H280v520h400v-520ZM360-280h80v-360h-80v360Zm160 0h80v-360h-80v360ZM280-720v520-520Z"/>
	</symbol>
</svg>
